<?xml version="1.0" encoding="iso-8859-1"?>
<!-- Generator: Adobe Illustrator 19.0.0, SVG Export Plug-In . SVG Version: 6.00 Build 0)  -->
<svg version="1.1" id="Capa_1" xmlns="http://www.w3.org/2000/svg" xmlns:xlink="http://www.w3.org/1999/xlink" x="0px" y="0px"
	 viewBox="0 0 512 512" style="enable-background:new 0 0 512 512;" xml:space="preserve">
<path style="fill:#F0F0FA;" d="M294,10H46c-11.046,0-20,8.954-20,20v120h288V30C314,18.954,305.046,10,294,10z"/>
<path style="fill:#FF5A5A;" d="M310,150H30c-11.046,0-20,8.954-20,20v312c0,11.046,8.954,20,20,20h280c11.046,0,20-8.954,20-20V170
	C330,158.954,321.046,150,310,150z"/>
<circle style="fill:#FFFFFF;" cx="170" cy="326" r="92"/>
<path style="fill:#E6AA46;" d="M123.597,346.007c-0.002,0-0.004,0-0.006,0c0.008-0.012,0.014-0.024,0.022-0.036
	c0.905-1.914,1.935-3.757,3.069-5.526c11.318-23.182,2.157-44.326,2.157-44.326s17.821,1.927,25.767,23.445
	c-3.131-11.232,9.392-37.895,31.547-46.564c-5.52,23.78,10.672,44.94,23.008,66.188c1.83,2.673,3.407,5.533,4.69,8.548
	c0.003,0.006,0.006,0.011,0.009,0.017h-0.001c2.524,5.937,3.922,12.468,3.922,19.326c0,27.309-22.139,49.448-49.448,49.448
	s-49.448-22.139-49.448-49.448C118.885,359.541,120.58,352.4,123.597,346.007z"/>
<path style="fill:#F5C86E;" d="M464.023,178.77V482c0,11.046-8.954,20-20,20l0,0c-11.046,0-20-8.954-20-20V178.77H464.023z"/>
<path style="fill:#E6AA46;" d="M391.569,96.084c-0.002,0-0.004,0-0.007,0c0.009-0.014,0.017-0.028,0.026-0.043
	c1.061-2.245,2.269-4.405,3.598-6.48c13.27-27.18,2.529-51.972,2.529-51.972s20.895,2.259,30.212,27.49
	c-3.671-13.17,11.012-44.431,36.989-54.596c-6.473,27.882,12.513,52.692,26.977,77.605c2.145,3.134,3.994,6.487,5.499,10.023
	c0.003,0.007,0.007,0.013,0.01,0.02h-0.001c2.959,6.961,4.598,14.619,4.598,22.66c0,32.02-25.957,57.978-57.977,57.978
	s-57.977-25.957-57.977-57.978C386.045,111.953,388.031,103.581,391.569,96.084z"/>
<polyline style="fill:#F5B955;" points="100.723,107 100.723,150 68.723,150 68.723,107 "/>
<path style="fill:#FF6E37;" d="M63.703,107h45.372l2.24-39.105C112.137,53.568,100.74,41.5,86.389,41.5l0,0
	c-14.35,0-25.747,12.068-24.927,26.395L63.703,107z"/>
<polyline style="fill:#F5B955;" points="184.333,107 184.333,150 152.333,150 152.333,107 "/>
<path style="fill:#FF6E37;" d="M147.314,107h45.372l2.24-39.105C195.747,53.568,184.351,41.5,170,41.5l0,0
	c-14.35,0-25.747,12.068-24.927,26.395L147.314,107z"/>
<polyline style="fill:#F5B955;" points="267.944,107 267.944,150 235.944,150 235.944,107 "/>
<path style="fill:#FF6E37;" d="M230.924,107h45.372l2.24-39.105C279.357,53.568,267.96,41.5,253.609,41.5l0,0
	c-14.35,0-25.747,12.068-24.927,26.395L230.924,107z"/>
<path d="M170,224c-56.243,0-102,45.757-102,102s45.757,102,102,102s102-45.757,102-102S226.243,224,170,224z M164.239,316.878
	c-1.008-3.614,2.955-15.508,11.607-24.801c2.637,15.708,11.332,30.033,19.288,43.14c1.798,2.961,3.657,6.023,5.38,8.992
	c0.124,0.214,0.256,0.423,0.396,0.627c1.474,2.152,2.732,4.446,3.74,6.815c0.014,0.032,0.027,0.063,0.041,0.095
	c2.05,4.854,3.09,10.013,3.09,15.333c0,21.752-17.696,39.448-39.448,39.448s-39.448-17.696-39.448-39.448
	c0-5.87,1.263-11.524,3.755-16.805c0.017-0.034,0.033-0.069,0.048-0.104c0.694-1.458,1.505-2.914,2.413-4.33
	c0.208-0.325,0.398-0.662,0.567-1.009c4.858-9.952,6.517-19.585,6.65-27.832c1.066,1.727,2.056,3.723,2.907,6.027
	c1.858,5.032,7.354,7.702,12.458,6.051C162.787,327.428,165.679,322.045,164.239,316.878z M224.174,387.48
	c2.333-6.365,3.607-13.237,3.607-20.401c0-8.052-1.587-15.869-4.717-23.236c-0.025-0.061-0.052-0.121-0.079-0.182
	c-1.462-3.408-3.262-6.704-5.355-9.804c-1.767-3.034-3.613-6.075-5.4-9.02c-10.358-17.063-20.142-33.181-16.336-49.576
	c0.839-3.615-0.393-7.398-3.2-9.826c-2.807-2.426-6.729-3.099-10.185-1.748c-14.731,5.765-26.505,18.435-32.956,31.482
	c-9.451-7.771-19.017-8.927-19.64-8.994c-3.537-0.379-7.029,1.114-9.14,3.98s-2.553,6.607-1.138,9.874
	c0.292,0.7,6.984,17.225-1.712,35.553c-1.196,1.909-2.28,3.875-3.229,5.855c-0.107,0.209-0.207,0.42-0.298,0.634
	c-3.658,7.874-5.512,16.285-5.512,25.007c0,5.479,0.761,10.781,2.155,15.823C96.792,368.144,88,348.085,88,326
	c0-45.215,36.785-82,82-82s82,36.785,82,82C252,350.463,241.219,372.443,224.174,387.48z"/>
<path d="M512,120.792c0-9.208-1.814-18.148-5.393-26.57c-0.027-0.063-0.055-0.127-0.083-0.19c-1.68-3.919-3.751-7.709-6.163-11.274
	c-2.073-3.562-4.244-7.138-6.345-10.599c-12.332-20.316-23.98-39.505-19.358-59.412c0.839-3.616-0.393-7.398-3.201-9.826
	c-2.807-2.427-6.728-3.101-10.185-1.748c-13.736,5.375-26.001,16.146-34.537,30.327c-1.559,2.59-2.933,5.193-4.115,7.778
	c-11.193-10.11-23.092-11.549-23.831-11.629c-3.539-0.376-7.026,1.118-9.138,3.985c-2.111,2.866-2.551,6.612-1.135,9.879
	c0.355,0.849,8.532,20.91-2.085,43.183c-1.398,2.225-2.662,4.516-3.765,6.82c-0.108,0.21-0.208,0.423-0.301,0.639
	c-4.195,9.016-6.322,18.648-6.322,28.638c0,26.719,15.501,49.876,37.978,60.979V482c0,16.542,13.458,30,30,30s30-13.458,30-30
	v-92.333c0-5.522-4.477-10-10-10s-10,4.478-10,10V482c0,5.514-4.486,10-10,10s-10-4.486-10-10V188.028
	c3.265,0.483,6.603,0.741,10,0.741s6.735-0.258,10-0.741v110.305c0,5.522,4.477,10,10,10s10-4.478,10-10V181.771
	C496.499,170.668,512,147.511,512,120.792z M444.022,168.77c-26.455,0-47.978-21.522-47.978-47.978
	c0-7.141,1.537-14.018,4.568-20.44c0.015-0.032,0.03-0.065,0.045-0.098c0.846-1.782,1.838-3.563,2.948-5.297
	c0.208-0.324,0.397-0.661,0.566-1.007c6.66-13.643,8.079-26.748,7.538-37.241c2.55,2.932,4.97,6.782,6.836,11.835
	c1.858,5.032,7.357,7.699,12.458,6.051c5.104-1.65,7.996-7.033,6.556-12.199c-1.606-5.764,4.434-21.885,16.5-33.222
	c2.276,19.454,13.053,37.207,22.859,53.362c2.112,3.479,4.297,7.078,6.326,10.573c0.124,0.214,0.256,0.424,0.396,0.628
	c1.793,2.619,3.324,5.408,4.55,8.29c0.011,0.026,0.022,0.053,0.034,0.079c2.505,5.915,3.775,12.201,3.775,18.686
	C492,147.247,470.478,168.77,444.022,168.77z"/>
<path d="M464.02,334.76c-2.63,0-5.21,1.07-7.07,2.93c-1.86,1.86-2.93,4.44-2.93,7.07c0,2.64,1.07,5.21,2.93,7.07
	c1.86,1.87,4.44,2.939,7.07,2.939s5.21-1.069,7.07-2.939c1.87-1.86,2.93-4.431,2.93-7.07c0-2.63-1.06-5.21-2.93-7.07
	C469.23,335.83,466.66,334.76,464.02,334.76z"/>
<path d="M324,143.479V30c0-16.542-13.458-30-30-30H46C29.458,0,16,13.458,16,30v113.479C6.494,148.517,0,158.512,0,170v312
	c0,16.542,13.458,30,30,30h280c16.542,0,30-13.458,30-30V170C340,158.512,333.506,148.517,324,143.479z M36,30
	c0-5.514,4.486-10,10-10h248c5.514,0,10,4.486,10,10v110h-26.056v-23.145c4.533-0.754,8.066-4.551,8.337-9.282l2.24-39.104
	c0.548-9.564-2.91-19.044-9.487-26.009S263.19,31.5,253.611,31.5c-9.58,0-18.846,3.994-25.423,10.959s-10.035,16.444-9.487,26.009
	l2.24,39.104c0.199,3.483,2.171,6.457,5.003,8.088V140h-31.61v-23.145c4.533-0.754,8.065-4.551,8.336-9.282l2.241-39.104
	c0.548-9.564-2.91-19.044-9.487-26.009S179.58,31.5,170,31.5s-18.846,3.994-25.423,10.959s-10.035,16.444-9.487,26.009l2.241,39.104
	c0.2,3.483,2.171,6.457,5.003,8.088V140h-31.611v-23.145c4.533-0.754,8.066-4.551,8.336-9.282l2.24-39.104
	c0.548-9.564-2.91-19.044-9.487-26.009c-6.577-6.966-15.843-10.96-25.423-10.96c-9.579,0-18.846,3.994-25.423,10.959
	s-10.035,16.444-9.487,26.009l2.24,39.104c0.2,3.483,2.171,6.457,5.003,8.088V140H36V30z M268.554,67.323L266.854,97h-26.486
	l-1.7-29.677c-0.238-4.153,1.205-8.107,4.061-11.132c2.857-3.025,6.722-4.691,10.882-4.691s8.025,1.666,10.882,4.691
	C267.349,59.216,268.792,63.17,268.554,67.323z M245.944,117h12v23h-12V117z M184.943,67.323L183.243,97h-26.485l-1.701-29.677
	c-0.238-4.153,1.205-8.107,4.061-11.132C161.975,53.166,165.84,51.5,170,51.5s8.025,1.666,10.882,4.691
	C183.739,59.216,185.181,63.17,184.943,67.323z M162.333,117h12v23h-12V117z M101.333,67.323L99.632,97H73.146l-1.7-29.677
	c-0.238-4.153,1.205-8.107,4.061-11.132c2.857-3.025,6.721-4.691,10.882-4.691s8.025,1.666,10.882,4.691
	C100.128,59.216,101.57,63.17,101.333,67.323z M78.723,117h12v23h-12V117z M320,482c0,5.514-4.486,10-10,10H30
	c-5.514,0-10-4.486-10-10V170c0-5.514,4.486-10,10-10h280c5.514,0,10,4.486,10,10V482z"/>
<path d="M238.46,452c-2.64,0-5.21,1.069-7.08,2.93c-1.86,1.86-2.92,4.44-2.92,7.07s1.06,5.21,2.92,7.069
	c1.86,1.86,4.44,2.931,7.08,2.931c2.63,0,5.2-1.07,7.07-2.931c1.86-1.859,2.93-4.439,2.93-7.069s-1.07-5.21-2.93-7.07
	C243.66,453.069,241.09,452,238.46,452z"/>
<path d="M200.145,452H98.211c-5.523,0-10,4.478-10,10s4.477,10,10,10h101.934c5.523,0,10-4.478,10-10S205.668,452,200.145,452z"/>
<g>
</g>
<g>
</g>
<g>
</g>
<g>
</g>
<g>
</g>
<g>
</g>
<g>
</g>
<g>
</g>
<g>
</g>
<g>
</g>
<g>
</g>
<g>
</g>
<g>
</g>
<g>
</g>
<g>
</g>
</svg>
